<svg id="Layer_1" xmlns="http://www.w3.org/2000/svg" viewBox="0 0 976.67 337.79"><defs><style>.era-logo-symbol{fill:#000;}</style></defs><path class="era-logo-symbol" d="m294.16,34.43c24.34,22.96,36.51,53.83,36.51,92.61,0,9.11-.99,19.99-2.97,32.65-1.59,8.71-4.36,19.4-8.31,32.06H69.46c-.4,2.77-.59,6.93-.59,12.47,0,23.36,7.22,41.95,21.67,55.8,14.44,13.86,33.34,20.78,56.69,20.78,29.39,0,53.35-9.71,71.89-29.14,10.04-10.52,23.87-16.57,38.41-16.57h47.61c-15.05,30.08-37.2,54.72-66.49,73.91-29.29,19.2-63.13,28.79-101.51,28.79-27.31,0-51.26-5.34-71.83-16.03-20.58-10.69-36.61-26.02-48.09-46.01C5.73,255.77,0,232.32,0,205.4c0-11.47,1.19-23.75,3.56-36.81,5.94-33.64,18-63.23,36.21-88.75,18.2-25.53,40.86-45.21,67.97-59.07C134.85,6.93,164.44,0,196.5,0c40.76,0,73.32,11.48,97.66,34.43Zm-32.95,93.2c0-21.76-7.23-38.98-21.67-51.65-14.45-12.66-33.15-19-56.1-19-24.15,0-45.92,7.72-65.3,23.15-19.4,15.44-32.65,36.42-39.77,62.93h167.31c8.5,0,15.51-6.84,15.54-15.34,0-.03,0-.06,0-.1Z"></path><path class="era-logo-symbol" d="m540.64,16.62c18.4-11.08,38.88-16.62,61.44-16.62l-12.47,70.05h-17.22c-26.12,0-47.1,6.53-62.93,19.59-15.83,13.06-26.92,35.62-33.24,67.68l-23.17,131.45c-4.45,25.26-26.4,43.67-52.05,43.67h-23.33l49.89-283.42c4.45-25.26,26.4-43.69,52.05-43.69h23.32l-10.09,57.59c13.45-19.79,29.38-35.22,47.79-46.31Z"></path><path class="era-logo-symbol" d="m648.08,80.14c18-25.32,40.07-45.02,66.19-59.07,26.12-14.04,53.43-21.08,81.92-21.08,25.72,0,47.29,5.05,64.71,15.14,17.41,10.09,30.47,22.66,39.18,37.7l.66-3.75c4.43-25.29,26.38-43.74,52.06-43.74h23.87l-49.9,283.42c-4.45,25.26-26.4,43.69-52.05,43.69h-23.91l8.91-48.68c-14.25,15.44-32.16,28.3-53.73,38.59-21.58,10.29-45.03,15.44-70.35,15.44s-46.41-5.54-65.6-16.62c-19.2-11.08-34.24-26.81-45.12-47.2-10.89-20.38-16.33-43.83-16.33-70.35,0-11.87,1.19-23.94,3.56-36.21,5.93-32.85,17.9-61.94,35.91-87.27Zm234.2,64.11c0-26.51-7.82-47.39-23.45-62.63-15.64-15.23-35.13-22.86-58.47-22.86-17.42,0-34.43,4.26-51.06,12.76-16.62,8.52-31.07,20.98-43.34,37.4-12.27,16.43-20.39,35.91-24.34,58.47-1.59,7.52-2.38,15.64-2.38,24.34,0,26.92,7.81,48.19,23.45,63.82,15.63,15.64,35.12,23.45,58.48,23.45,17.41,0,34.43-4.35,51.05-13.06,16.62-8.7,31.07-21.46,43.34-38.29,12.26-16.82,20.38-36.51,24.34-59.07,1.58-7.51,2.38-15.63,2.38-24.34Z"></path></svg>